<svg width="324" height="320" viewBox="0 0 324 320" fill="none" xmlns="http://www.w3.org/2000/svg">
<path opacity="0.2" fill-rule="evenodd" clip-rule="evenodd" d="M323.246 159.628C323.246 163.36 323.117 167.061 322.863 170.729V238.875V239.254V240.375V240.754V318.5V320H321.351H243.095H242.712H241.583H241.201H162.945H162.562H161.433H161.05H82.7943H82.4118H81.2826H80.9H2.64415H1.13244V318.5V240.754V240.375V239.254V238.875V170.709C0.87887 167.048 0.75 163.353 0.75 159.628C0.75 155.904 0.87887 152.209 1.13244 148.547V81.5036V81.125H1.13194V79.625V1.87859V0.37859H2.64366H80.8996H82.4113V0.379058H82.7944H150.798C154.499 0.127732 158.233 0 161.998 0C165.763 0 169.498 0.127732 173.198 0.379058H241.201H241.583H242.712H243.095H321.351H322.863V1.87906V79.6255V81.1255L322.863 81.5036V148.528C323.117 152.196 323.246 155.897 323.246 159.628ZM321.351 81.5036V135.076C318.357 115.875 311.906 97.8031 302.648 81.5036H321.351ZM321.351 148.581C319.659 124.305 312.431 101.537 300.909 81.5036H243.095V159.25H321.351V148.581ZM321.351 79.6255H301.564C287.499 55.6314 267.301 35.598 243.095 21.6274V1.87906H321.351V79.6255ZM299.812 79.6255C286.048 56.441 266.485 37.0366 243.095 23.3656V79.6255H299.812ZM241.201 1.87906V20.551C224.666 11.3031 206.318 4.86144 186.816 1.87906H241.201ZM241.201 22.2756C220.892 10.7747 197.787 3.56062 173.146 1.87906H162.945V79.6255H241.201V22.2756ZM82.7944 1.87906H137.18C117.678 4.86152 99.3294 11.3035 82.7944 20.5517V1.87906ZM150.851 1.87906C126.208 3.56066 103.103 10.775 82.7944 22.2764V79.6255H161.05V1.87906H150.851ZM80.8996 1.87859V21.6284C56.6943 35.5988 36.4974 55.6317 22.4327 79.625H2.64366V1.87859H80.8996ZM80.8996 23.3666C57.5108 37.0375 37.9482 56.4413 24.1848 79.625H80.8996V23.3666ZM2.64415 81.5036H21.3487C12.0891 97.8055 5.63777 115.88 2.64415 135.085V81.5036ZM2.64415 161.129V170.657C4.36566 195.394 11.8345 218.566 23.7384 238.875H80.9V161.129H2.64415ZM2.64415 238.875V184.172C5.70661 203.818 12.3876 222.282 21.9919 238.875H2.64415ZM2.64415 240.754H23.0965C37.1296 264.25 57.0728 283.876 80.9 297.629V318.5H2.64415V240.754ZM82.7943 318.5V298.705C101.855 309.366 123.326 316.298 146.196 318.5H82.7943ZM82.7943 296.98C105.883 310.056 132.584 317.59 161.05 317.754V240.754H82.7943V296.98ZM241.201 318.5H177.8C200.67 316.298 222.14 309.366 241.201 298.706V318.5ZM162.945 317.754C191.411 317.591 218.113 310.056 241.201 296.981V240.754H162.945V317.754ZM243.095 318.5V297.629C266.923 283.877 286.867 264.25 300.9 240.754H321.351V318.5H243.095ZM243.095 295.891C266.106 282.441 285.414 263.442 299.139 240.754H243.095V295.891ZM243.095 238.875H300.258C312.159 218.572 319.627 195.406 321.351 170.676V161.129H243.095V238.875ZM321.351 184.18C318.288 203.824 311.607 222.284 302.004 238.875H321.351V184.18ZM24.8571 240.754C38.582 263.442 57.8893 282.441 80.9 295.89V240.754H24.8571ZM23.087 81.5036C11.5621 101.542 4.33404 124.317 2.64415 148.6V159.25H80.9V81.5036H23.087ZM82.7943 81.5036H161.05V86.6228H126.754H121.069H100.605V159.25H82.7943V81.5036ZM100.605 161.129H82.7943V238.875H161.05V161.129H126.754V233.188H100.605V161.129ZM126.754 159.25H161.05V112.554H126.754V159.25ZM162.945 86.6228H200.653H206.338H226.802V159.25H241.201V81.5036H162.945V86.6228ZM226.802 161.129H241.201V238.875H162.945V161.129H200.653V233.188H226.802V161.129ZM200.653 159.25V112.554H162.945V159.25H200.653Z" fill="white"/>
</svg>
