<svg xmlns="http://www.w3.org/2000/svg" width="324" height="320" fill="none"><path fill="#fff" fill-rule="evenodd" d="M323.246 159.628c0 3.732-.129 7.433-.383 11.101V320H1.132V170.709a160.35 160.35 0 0 1 0-22.162V.379h149.666a165.278 165.278 0 0 1 22.4 0H322.863v148.149c.254 3.668.383 7.369.383 11.1Zm-1.895-78.124v53.572a157.494 157.494 0 0 0-18.703-53.572h18.703Zm0 67.077a156.022 156.022 0 0 0-20.442-67.077h-57.814v77.746h78.256v-10.669Zm0-68.955h-19.787c-14.065-23.995-34.263-44.028-58.469-57.999V1.88h78.256v77.747Zm-21.539 0c-13.764-23.185-33.327-42.59-56.717-56.26v56.26h56.717ZM241.201 1.879v18.672a161.249 161.249 0 0 0-54.385-18.672h54.385Zm0 20.397C220.892 10.775 197.787 3.56 173.146 1.879h-10.201v77.747h78.256v-57.35ZM82.794 1.879h54.386a161.248 161.248 0 0 0-54.386 18.673V1.879Zm68.057 0c-24.643 1.682-47.748 8.896-68.057 20.397v57.35h78.256V1.879h-10.199Zm-69.951 0v19.75c-24.206 13.97-44.403 34.003-58.467 57.996H2.643V1.879H80.9Zm0 21.488C57.51 37.037 37.948 56.44 24.185 79.625H80.9V23.367ZM2.644 81.504H21.35a157.49 157.49 0 0 0-18.705 53.581V81.504Zm0 79.625v9.528c1.722 24.737 9.19 47.909 21.094 68.218H80.9v-77.746H2.644Zm0 77.746v-54.703a157.519 157.519 0 0 0 19.348 54.703H2.644Zm0 1.879h20.453C37.13 264.25 57.072 283.876 80.9 297.629V318.5H2.644v-77.746Zm80.15 77.746v-19.795c19.061 10.661 40.532 17.593 63.402 19.795H82.794Zm0-21.52c23.089 13.076 49.79 20.61 78.256 20.774v-77H82.794v56.226Zm158.407 21.52H177.8c22.87-2.202 44.34-9.134 63.401-19.794V318.5Zm-78.256-.746c28.466-.163 55.168-7.698 78.256-20.773v-56.227h-78.256v77Zm80.15.746v-20.871c23.828-13.752 43.772-33.379 57.805-56.875h20.451V318.5h-78.256Zm0-22.609c23.011-13.45 42.319-32.449 56.044-55.137h-56.044v55.137Zm0-57.016h57.163c11.901-20.303 19.369-43.469 21.093-68.199v-9.547h-78.256v77.746Zm78.256-54.695a157.513 157.513 0 0 1-19.347 54.695h19.347V184.18ZM24.857 240.754C38.582 263.442 57.89 282.441 80.9 295.89v-55.136H24.857Zm-1.77-159.25A156.028 156.028 0 0 0 2.644 148.6v10.65H80.9V81.504H23.087Zm59.707 0h78.256v5.119h-60.445v72.627h-17.81V81.504Zm17.811 79.625h-17.81v77.746h78.255v-77.746h-34.296v72.059h-26.149v-72.059Zm26.149-1.879h34.296v-46.696h-34.296v46.696Zm36.191-72.627h63.857v72.627h14.399V81.504h-78.256v5.119Zm63.857 74.506h14.399v77.746h-78.256v-77.746h37.708v72.059h26.149v-72.059Zm-26.149-1.879v-46.696h-37.708v46.696h37.708Z" clip-rule="evenodd" opacity=".2"/></svg>